<?xml version="1.0" encoding="utf-8"?>
<!-- Generator: Adobe Illustrator 18.1.1, SVG Export Plug-In . SVG Version: 6.00 Build 0)  -->
<svg version="1.1" id="Layer_1" xmlns="http://www.w3.org/2000/svg" xmlns:xlink="http://www.w3.org/1999/xlink" x="0px" y="0px"
	 viewBox="-9 -9.3 40 40" enable-background="new -9 -9.3 40 40" xml:space="preserve">
<g>
	<path fill="#E85685" d="M4.2-2.9c0,1.5-1.2,2.7-2.7,2.7l0,0C0-0.2-1.2-1.4-1.2-2.9v-2.7c0-1.5,1.2-2.7,2.7-2.7l0,0
		c1.5,0,2.7,1.2,2.7,2.7V-2.9z"/>
	<path fill="#E85685" d="M23.2-2.9c0,1.5-1.2,2.7-2.7,2.7l0,0c-1.5,0-2.7-1.2-2.7-2.7v-2.7c0-1.5,1.2-2.7,2.7-2.7l0,0
		c1.5,0,2.7,1.2,2.7,2.7V-2.9z"/>
	<path fill="#E85685" d="M27.4-5.6h-2.8v3.5c0,1.9-2,3.3-4,3.3c-2,0-4.1-1.4-4.1-3.3v-3.5H5.6v3.5c0,1.9-2,3.3-4.1,3.3
		s-4.1-1.4-4.1-3.3v-3.5h-2.8C-6.8-5.6-8-4.5-8-3.1v30.3c0,1.4,1.2,2.5,2.6,2.5h32.7c1.5,0,2.6-1.1,2.6-2.5V-3.1
		C30-4.5,28.8-5.6,27.4-5.6z M28.7,27.4c0,0.6-0.5,1-1,1H-5.6c-0.6,0-1-0.4-1-1V3.1c0-0.6,0.5-1,1-1h33.3c0.6,0,1,0.4,1,1V27.4z"/>
</g>
</svg>
