<svg id="Layer_1" data-name="Layer 1" xmlns="http://www.w3.org/2000/svg" viewBox="0 0 634 581.7">
    <title>deleted 6-03</title><circle cx="292.6" cy="290.8" r="288.7" fill="#6d6e71"/>
    <circle cx="292.6" cy="290.8" r="263.9" fill="#f1f2f2"/>
    <path d="M285.7,287.4a5.8,5.8,0,0,0,5.8,5.8,6.24,6.24,0,0,0,5.8-5.8V162.7a5.46,5.46,0,0,0-5.8-5.8,5.8,5.8,0,0,0-5.8,5.8Z" fill="#414042"/><path d="M290.9,303.5a5.46,5.46,0,0,0,5.8-5.8,5.8,5.8,0,0,0-5.8-5.8h-101a5.8,5.8,0,0,0-5.8,5.8,6.24,6.24,0,0,0,5.8,5.8Z" fill="#414042"/><rect x="53.6" y="286.2" width="34.1" height="9.2" fill="#414042"/><rect x="497.6" y="286.2" width="34.1" height="9.2" fill="#414042"/><rect x="288" y="495.8" width="9.2" height="34.1" fill="#414042"/><rect x="288" y="51.8" width="9.2" height="34.1" fill="#414042"/><rect x="118.66" y="442.94" width="34.1" height="9.2" transform="translate(-276.69 227.01) rotate(-45)" fill="#414042"/><rect x="432.44" y="129.54" width="34.1" height="9.2" transform="translate(36.81 357.16) rotate(-45)" fill="#414042"/><rect x="444.79" y="430.64" width="9.2" height="34.1" transform="translate(-184.94 448.89) rotate(-45)" fill="#414042"/><rect x="131.38" y="116.88" width="9.2" height="34.1" transform="translate(-54.88 135.38) rotate(-45)" fill="#414042"/><circle cx="291.5" cy="298.3" r="17.9" fill="#414042"/><circle cx="291.5" cy="298.3" r="13.9" fill="#f1f2f2"/><circle cx="291.5" cy="298.3" r="10.4" fill="#e85685"/><path d="M297.3,297.8c-2.3-2.3-5.8-2.3-7.5-.6s-1.7,5.2.6,7.5l98.2,98.2c2.3,2.3,5.8,2.3,7.5.6s1.7-5.2-.6-7.5Z" fill="#e85685"/><path d="M504.4,574A126.75,126.75,0,1,1,631.1,447.3,126.82,126.82,0,0,1,504.4,574Z" fill="#666"/><path d="M504.2,422.6h48.6c5,0,5.6.5,5.6,5.4v89.9c0,10.8-5.9,16.7-16.6,16.7-25.1.1-50.1.1-75.2,0-10.8,0-16.5-5.8-16.6-16.7V428c0-5.1.4-5.4,5.5-5.4Zm5.9,55.2V441c-.3-3.4-2.5-5.6-5.6-5.7s-5.5,1.9-6,5.3a16.2,16.2,0,0,0-.1,2.2v69.7a10.82,10.82,0,0,0,.5,3.6,5.25,5.25,0,0,0,5.7,3.7,5.54,5.54,0,0,0,5.3-4.4,15.06,15.06,0,0,0,.2-3.7Zm-29.8-.4V444.2a31.46,31.46,0,0,0-.3-4.4,5.74,5.74,0,0,0-11.3.3,18.29,18.29,0,0,0-.2,3.3v68.2a18.29,18.29,0,0,0,.2,3.3,5.72,5.72,0,0,0,11.2.3,21.19,21.19,0,0,0,.4-4.4C480.4,499.8,480.3,488.6,480.3,477.4Zm48,0v33.2c0,1.2,0,2.5.1,3.7.3,3.3,2.2,5.2,5.4,5.5s5.5-1.8,6.1-5.1a14.64,14.64,0,0,0,.2-2.9V443.6a23.08,23.08,0,0,0-.3-3.7c-.7-3.1-2.7-4.7-5.8-4.6a5.3,5.3,0,0,0-5.5,4.9,26.8,26.8,0,0,0-.2,4C528.2,455.3,528.3,466.4,528.3,477.4Z" fill="#fff"/><path d="M504.4,415.3H443.3c-5.2,0-5.7-.5-5.6-5.7,0-4.2-.1-8.4.2-12.5a14.07,14.07,0,0,1,13.3-13.3c3.8-.2,7.6-.1,11.4-.2,2.9,0,4.2-1.3,4.2-4.3a35.87,35.87,0,0,1,.5-7.3c1.4-6.3,6.5-11,13-11.1,16-.2,31.9-.3,47.9,0A13.79,13.79,0,0,1,541.8,375c-.1,10.1,1.6,8.9,8.9,8.5,15.8-.9,21.5,7,20.4,20.7-.1,1.8,0,3.7,0,5.5,0,4.8-.7,5.6-5.5,5.6H504.4Zm-.2-42.8h-21c-4.2,0-4.8.7-4.8,5.1,0,5,.6,6,4.7,6h42.4c4,0,4.6-.9,4.6-5.7s-.5-5.3-4.5-5.3C518.4,372.5,511.3,372.5,504.2,372.5Z" fill="#fff"/></svg>
