<?xml version="1.0" encoding="utf-8"?>
<!-- Generator: Adobe Illustrator 18.1.1, SVG Export Plug-In . SVG Version: 6.00 Build 0)  -->
<svg version="1.1" id="Layer_1" xmlns="http://www.w3.org/2000/svg" xmlns:xlink="http://www.w3.org/1999/xlink" x="0px" y="0px"
	 viewBox="-9.7 0 634 581.7" enable-background="new -9.7 0 634 581.7" xml:space="preserve">
	<circle fill="#6D6E71" cx="282.9" cy="290.8" r="288.7"/>
	<circle fill="#F1F2F2" cx="282.9" cy="290.8" r="263.9"/>
	<g>
		<path fill="#414042" d="M276,287.4c0,2.9,2.3,5.8,5.8,5.8c2.9,0,5.8-2.9,5.8-5.8V162.7c0-3.5-2.3-5.8-5.8-5.8
			c-2.9,0-5.8,2.3-5.8,5.8V287.4z"/>
	</g>
	<g>
		<path fill="#414042" d="M281.2,303.5c3.5,0,5.8-2.3,5.8-5.8c0-2.9-2.3-5.8-5.8-5.8h-101c-2.9,0-5.8,2.3-5.8,5.8
			c0,2.9,2.9,5.8,5.8,5.8H281.2z"/>
	</g>
		<g>
			<rect x="43.9" y="286.2" fill="#414042" width="34.1" height="9.2"/>
			<rect x="487.9" y="286.2" fill="#414042" width="34.1" height="9.2"/>
		</g>
		<g>
			<rect x="278.3" y="495.8" fill="#414042" width="9.2" height="34.1"/>
			<rect x="278.3" y="51.8" fill="#414042" width="9.2" height="34.1"/>
		</g>
		<g>

				<rect x="121.4" y="430.5" transform="matrix(0.7071 0.7072 -0.7072 0.7071 353.4245 41.9676)" fill="#414042" width="9.2" height="34.1"/>

				<rect x="435.2" y="117.1" transform="matrix(0.7072 0.7071 -0.7071 0.7072 223.6221 -271.7086)" fill="#414042" width="9.2" height="34.1"/>
		</g>
		<g>

				<rect x="422.6" y="443.1" transform="matrix(0.7071 0.7071 -0.7071 0.7071 445.386 -179.7566)" fill="#414042" width="34.1" height="9.2"/>

				<rect x="109.2" y="129.3" transform="matrix(0.7071 0.7071 -0.7071 0.7071 131.6857 -50.0176)" fill="#414042" width="34.1" height="9.2"/>
		</g>
	<circle fill="#414042" cx="281.8" cy="298.3" r="17.9"/>
	<circle fill="#F1F2F2" cx="281.8" cy="298.3" r="13.9"/>
	<circle fill="#E85685" cx="281.8" cy="298.3" r="10.4"/>
	<g>
		<g>
			<path fill="#E85685" d="M287.6,297.8c-2.3-2.3-5.8-2.3-7.5-0.6c-1.7,1.7-1.7,5.2,0.6,7.5l98.2,98.2c2.3,2.3,5.8,2.3,7.5,0.6
				c1.7-1.7,1.7-5.2-0.6-7.5L287.6,297.8z"/>
		</g>
	</g>
	<rect x="489.7" y="502.7" fill="#1B6DAB" width="33.9" height="28"/>
	<path fill="#666666" d="M494.7,574c-70,0-126.8-56.8-126.8-126.7c0-70,56.8-126.8,126.8-126.8c70,0,126.7,56.8,126.7,126.8
		C621.4,517.2,564.7,574,494.7,574z"/>
	<g>
		<path fill-rule="evenodd" clip-rule="evenodd" fill="#FFFFFF" d="M494.5,422.6c16.2,0,32.4,0,48.6,0c5,0,5.6,0.5,5.6,5.4
			c0,30,0,59.9,0,89.9c0,10.8-5.9,16.7-16.6,16.7c-25.1,0.1-50.1,0.1-75.2,0c-10.8,0-16.5-5.8-16.6-16.7c0-30,0-59.9,0-89.9
			c0-5.1,0.4-5.4,5.5-5.4C462.1,422.6,478.3,422.6,494.5,422.6z M500.4,477.8c0-11.3,0-22.6,0-33.9c0-1,0-2,0-2.9
			c-0.3-3.4-2.5-5.6-5.6-5.7c-3.2-0.1-5.5,1.9-6,5.3c-0.1,0.7-0.1,1.5-0.1,2.2c0,23.2,0,46.4,0,69.7c0,1.2,0.1,2.5,0.5,3.6
			c0.9,2.6,3,3.9,5.7,3.7c2.7-0.2,4.6-1.7,5.3-4.4c0.3-1.2,0.2-2.4,0.2-3.7C500.4,500.4,500.4,489.1,500.4,477.8z M470.6,477.4
			c0-11.1,0-22.1,0-33.2c0-1.5-0.1-3-0.3-4.4c-0.6-3.1-2.7-4.7-5.8-4.6c-3.1,0.1-5,1.8-5.5,4.9c-0.2,1.1-0.2,2.2-0.2,3.3
			c0,22.7,0,45.5,0,68.2c0,1.1,0,2.2,0.2,3.3c0.5,2.9,2.4,4.6,5.3,4.7c3,0.2,5.2-1.3,5.9-4.4c0.3-1.4,0.4-2.9,0.4-4.4
			C470.7,499.8,470.6,488.6,470.6,477.4z M518.6,477.4c0,11.1,0,22.1,0,33.2c0,1.2,0,2.5,0.1,3.7c0.3,3.3,2.2,5.2,5.4,5.5
			c3.1,0.3,5.5-1.8,6.1-5.1c0.2-1,0.2-2,0.2-2.9c0-22.7,0-45.5,0-68.2c0-1.2-0.1-2.5-0.3-3.7c-0.7-3.1-2.7-4.7-5.8-4.6
			c-3.1,0.1-5,1.8-5.5,4.9c-0.2,1.3-0.2,2.7-0.2,4C518.5,455.3,518.6,466.4,518.6,477.4z"/>
		<path fill-rule="evenodd" clip-rule="evenodd" fill="#FFFFFF" d="M494.7,415.3c-20.4,0-40.8,0-61.1,0c-5.2,0-5.7-0.5-5.6-5.7
			c0-4.2-0.1-8.4,0.2-12.5c0.5-7.3,6-12.8,13.3-13.3c3.8-0.2,7.6-0.1,11.4-0.2c2.9,0,4.2-1.3,4.2-4.3c0-2.4,0-4.9,0.5-7.3
			c1.4-6.3,6.5-11,13-11.1c16-0.2,31.9-0.3,47.9,0c7.7,0.1,13.7,6.4,13.6,14.1c-0.1,10.1,1.6,8.9,8.9,8.5c15.8-0.9,21.5,7,20.4,20.7
			c-0.1,1.8,0,3.7,0,5.5c0,4.8-0.7,5.6-5.5,5.6c-18.5,0-37.1,0-55.6,0C498.3,415.3,496.5,415.3,494.7,415.3z M494.5,372.5
			c-7,0-14,0-21,0c-4.2,0-4.8,0.7-4.8,5.1c0,5,0.6,6,4.7,6c14.1,0,28.2,0,42.4,0c4,0,4.6-0.9,4.6-5.7c0-4.7-0.5-5.3-4.5-5.3
			C508.7,372.5,501.6,372.5,494.5,372.5z"/>
	</g>
</svg>
