<?xml version="1.0" encoding="utf-8"?>
<!-- Generator: Adobe Illustrator 21.0.2, SVG Export Plug-In . SVG Version: 6.00 Build 0)  -->
<svg version="1.1" id="Layer_1" xmlns="http://www.w3.org/2000/svg" xmlns:xlink="http://www.w3.org/1999/xlink" x="0px" y="0px"
	 viewBox="0 0 32 32" style="enable-background:new 0 0 32 32;" xml:space="preserve">
<style type="text/css">
	.st0{fill:#E85685;}
</style>
<path class="st0" d="M16,0C7.2,0,0,7.2,0,16s7.2,16,16,16s16-7.2,16-16S24.8,0,16,0 M16,30.6C8,30.6,1.4,24,1.4,16S8,1.4,16,1.4
	S30.6,8,30.6,16S24,30.6,16,30.6"/>
<path class="st0" d="M15.9,10.8c-0.6,0-1.1,0.5-1.1,1.1V24c0,0.6,0.5,1.1,1.1,1.1S17,24.6,17,24V11.9C17,11.3,16.5,10.8,15.9,10.8"
	/>
<path class="st0" d="M17.3,7.8c0,0.7-0.6,1.3-1.3,1.3s-1.3-0.6-1.3-1.3s0.6-1.3,1.3-1.3C16.7,6.5,17.3,7.1,17.3,7.8"/>
</svg>
