<?xml version="1.0" encoding="utf-8"?>
<!-- Generator: Adobe Illustrator 21.0.2, SVG Export Plug-In . SVG Version: 6.00 Build 0)  -->
<svg version="1.1" id="Layer_1" xmlns="http://www.w3.org/2000/svg" xmlns:xlink="http://www.w3.org/1999/xlink" x="0px" y="0px"
	 viewBox="0 0 630.5 581.7" style="enable-background:new 0 0 630.5 581.7;" xml:space="preserve">
<style type="text/css">
	.st0{fill:#6D6E71;}
	.st1{fill:#F1F2F2;}
	.st2{fill:#414042;}
	.st3{fill:#E85685;}
	.st4{fill:#FF9023;}
	.st5{fill:#FFFFFF;}
</style>
<path class="st0" d="M404.2,528.6c-34.7,16.7-73.5,26.1-114.6,26.1c-145.7,0-263.9-118.2-263.9-263.9S143.9,26.9,289.6,26.9
	s263.9,118.2,263.9,263.9c0,13.5-1,26.7-3,39.6c8.1,3.4,15.9,7.7,23,12.7c3.1-17,4.7-34.4,4.7-52.3C578.3,131.4,449,2.1,289.6,2.1
	S0.9,131.4,0.9,290.8s129.3,288.7,288.7,288.7c48.1,0,93.5-11.8,133.4-32.6C416.1,541.4,409.8,535.3,404.2,528.6z"/>
<path class="st1" d="M383.4,400.7l-86.6-86.6c-2.5,1.3-5.3,2.1-8.3,2.1c-8.1,0-14.9-5.4-17.1-12.7h-84.5c-2.9,0-5.8-2.9-5.8-5.8
	c0-3.5,2.9-5.8,5.8-5.8h84.9c1.9-4.9,5.9-8.8,10.9-10.5V162.7c0-3.5,2.9-5.8,5.8-5.8c3.5,0,5.8,2.3,5.8,5.8v118.7
	c7,2.4,12.1,9.1,12.1,16.9c0,3.3-0.9,6.4-2.5,9.1l83.8,83.8c20.7-41.9,63.9-70.7,113.7-70.7c17.4,0,34,3.5,49.1,9.9
	c1.9-12.9,3-26.1,3-39.6c0-145.7-118.2-263.9-263.9-263.9S25.7,145.1,25.7,290.8s118.2,263.9,263.9,263.9
	c41.1,0,79.9-9.4,114.6-26.1c-18.5-22-29.6-50.4-29.6-81.3C374.6,430.9,377.7,415.2,383.4,400.7z M494.6,286.2h34.1v9.2h-34.1V286.2
	z M455.3,118.8l6.5,6.5l-24.1,24.1l-6.5-6.5L455.3,118.8z M285,51.8h9.2v34.1H285V51.8z M84.7,295.4H50.6v-9.2h34.1V295.4z
	 M123.9,462.8l-6.5-6.5l24.1-24.1l6.5,6.5L123.9,462.8z M141.8,149.2l-24.1-24.1l6.5-6.5l24.1,24.1L141.8,149.2z M294.2,529.9H285
	v-34.1h9.2V529.9z"/>
<path class="st2" d="M294.3,281.4V162.7c0-3.5-2.3-5.8-5.8-5.8c-2.9,0-5.8,2.3-5.8,5.8v118.7c1.8-0.6,3.8-1,5.8-1
	S292.5,280.8,294.3,281.4z"/>
<path class="st2" d="M271.8,291.9h-84.9c-2.9,0-5.8,2.3-5.8,5.8c0,2.9,2.9,5.8,5.8,5.8h84.5c-0.5-1.6-0.8-3.4-0.8-5.2
	C270.6,296,271,293.9,271.8,291.9z"/>
<rect x="50.6" y="286.2" class="st2" width="34.1" height="9.2"/>
<rect x="494.6" y="286.2" class="st2" width="34.1" height="9.2"/>
<rect x="285" y="495.8" class="st2" width="9.2" height="34.1"/>
<rect x="285" y="51.8" class="st2" width="9.2" height="34.1"/>
<rect x="115.7" y="442.9" transform="matrix(0.7072 -0.7071 0.7071 0.7072 -277.5706 224.8909)" class="st2" width="34.1" height="9.2"/>
<rect x="429.4" y="129.5" transform="matrix(0.7071 -0.7072 0.7072 0.7071 35.936 355.0378)" class="st2" width="34.1" height="9.2"/>
<rect x="128.4" y="116.9" transform="matrix(0.7071 -0.7071 0.7071 0.7071 -55.7582 133.257)" class="st2" width="9.2" height="34.1"/>
<path class="st2" d="M288.5,312.2c-5.8,0-10.8-3.6-12.9-8.7h-4.2c2.2,7.3,9.1,12.7,17.1,12.7c3,0,5.8-0.8,8.3-2.1l-3-3
	C292.2,311.8,290.4,312.2,288.5,312.2z"/>
<path class="st2" d="M302.4,298.3c0,2.2-0.5,4.3-1.4,6.2l2.9,2.9c1.6-2.7,2.5-5.8,2.5-9.1c0-7.9-5.1-14.5-12.1-16.9v4.3
	C299.1,287.9,302.4,292.7,302.4,298.3z"/>
<path class="st2" d="M282.7,285.7v-4.3c-5,1.7-9,5.6-10.9,10.5h4.4C277.6,289.2,279.9,287,282.7,285.7z"/>
<path class="st2" d="M288.5,284.4c2.1,0,4,0.5,5.8,1.3v-4.3c-1.8-0.6-3.8-1-5.8-1s-4,0.4-5.8,1v4.3
	C284.5,284.9,286.4,284.4,288.5,284.4z"/>
<path class="st2" d="M274.6,298.3c0-2.3,0.6-4.5,1.6-6.4h-4.4c-0.8,2-1.2,4.1-1.2,6.4c0,1.8,0.3,3.6,0.8,5.2h4.2
	C275,301.9,274.6,300.1,274.6,298.3z"/>
<path class="st1" d="M288.5,308.7c-3.8,0-7.2-2.1-9-5.2h-3.9c2.1,5.1,7,8.7,12.9,8.7c1.9,0,3.7-0.4,5.3-1.1l-2.8-2.8
	C290.2,308.6,289.4,308.7,288.5,308.7z"/>
<path class="st1" d="M294.3,285.7v1.7c0,0.7-0.2,1.4-0.4,2c3,1.8,5,5.1,5,8.9c0,1.2-0.2,2.4-0.6,3.5l2.7,2.7
	c0.9-1.9,1.4-3.9,1.4-6.2C302.4,292.7,299.1,287.9,294.3,285.7z"/>
<path class="st1" d="M283.1,289.4c-0.2-0.7-0.4-1.3-0.4-2v-1.7c-2.8,1.3-5.1,3.5-6.5,6.2h4.1C281.1,290.9,282,290.1,283.1,289.4z"/>
<path class="st1" d="M283.1,289.4c1.6-1,3.4-1.5,5.4-1.5c2,0,3.8,0.6,5.4,1.5c0.3-0.6,0.4-1.3,0.4-2v-1.7c-1.8-0.8-3.7-1.3-5.8-1.3
	s-4,0.5-5.8,1.3v1.7C282.7,288.1,282.8,288.8,283.1,289.4z"/>
<path class="st1" d="M278.1,298.3c0-2.4,0.8-4.6,2.2-6.4h-4.1c-1,1.9-1.6,4.1-1.6,6.4c0,1.8,0.4,3.6,1,5.2h3.9
	C278.6,302,278.1,300.2,278.1,298.3z"/>
<path class="st3" d="M283.1,289.4c-1.1,0.7-2,1.5-2.8,2.5h4.5C284,291.2,283.4,290.4,283.1,289.4z"/>
<path class="st3" d="M286.5,303.5h-7c1.8,3.1,5.2,5.2,9,5.2c0.9,0,1.7-0.1,2.6-0.3l-3.7-3.7C287,304.3,286.7,303.9,286.5,303.5z"/>
<path class="st3" d="M290.8,292.6c1.7,1,2.8,2.8,2.9,4.6c0.2,0.2,0.4,0.3,0.6,0.5l4,4c0.4-1.1,0.6-2.3,0.6-3.5c0-3.8-2-7.1-5-8.9
	C293.3,290.8,292.1,292,290.8,292.6z"/>
<path class="st3" d="M283.1,289.4c0.4,0.9,1,1.8,1.8,2.5h3.1c1.1,0,2,0.3,2.9,0.7c1.4-0.7,2.5-1.9,3.1-3.2c-1.6-0.9-3.4-1.5-5.4-1.5
	C286.5,287.9,284.7,288.5,283.1,289.4z"/>
<path class="st3" d="M286.8,297.2c1.6-1.6,4.6-1.7,6.9,0.1c-0.1-1.9-1.2-3.7-2.9-4.6c-0.7,0.4-1.5,0.6-2.3,0.6
	c-1.5,0-2.7-0.5-3.7-1.3h-4.5c-1.4,1.8-2.2,4-2.2,6.4c0,1.9,0.5,3.7,1.4,5.2h7C285.2,301.3,285.4,298.6,286.8,297.2z"/>
<path class="st3" d="M290.8,292.6c-0.8-0.5-1.8-0.7-2.9-0.7h-3.1c1,0.8,2.2,1.3,3.7,1.3C289.3,293.2,290,293,290.8,292.6z"/>
<path class="st3" d="M296.8,314.1l86.6,86.6c1.3-3.3,2.7-6.4,4.3-9.5l-83.8-83.8C302.2,310.2,299.8,312.6,296.8,314.1z"/>
<path class="st3" d="M303.9,307.4l-2.9-2.9c-1.5,3-4,5.4-7.1,6.7l3,3C299.8,312.6,302.2,310.2,303.9,307.4z"/>
<path class="st3" d="M291.1,308.4l2.8,2.8c3.1-1.3,5.6-3.7,7.1-6.7l-2.7-2.7C297.1,305,294.4,307.5,291.1,308.4z"/>
<path class="st3" d="M293.7,297.3c0,0.1,0,0.3,0,0.4c0,3.5-2.3,5.8-5.8,5.8h-1.4c0.3,0.4,0.5,0.8,0.9,1.2l3.7,3.7
	c3.4-0.9,6.1-3.3,7.2-6.6l-4-4C294.1,297.6,293.9,297.4,293.7,297.3z"/>
<path class="st3" d="M286.8,297.2c-1.4,1.4-1.6,4.1-0.3,6.3h1.4c3.5,0,5.8-2.3,5.8-5.8c0-0.1,0-0.3,0-0.4
	C291.4,295.5,288.4,295.6,286.8,297.2z"/>
<path class="st4" d="M573.6,343.1c-7.2-5-14.9-9.2-23-12.7c-15.1-6.4-31.7-9.9-49.1-9.9c-49.9,0-93,28.8-113.7,70.7
	c-1.5,3.1-3,6.3-4.3,9.5c-5.7,14.4-8.8,30.1-8.8,46.6c0,30.9,11.1,59.3,29.6,81.3c5.6,6.7,11.9,12.8,18.8,18.3
	c21.6,17,48.8,27.1,78.4,27.1c70,0,126.7-56.8,126.7-126.7C628.1,404.1,606.5,366,573.6,343.1z M520.9,527.3h-37.4v-22.6v-8.3h8.7
	h28.7V527.3z M556.9,437.3c-3.2,3.8-9.3,8.7-18.3,14.7l-8.9,5.9c-4.9,3.2-8.1,6.9-9.7,11.2c-0.9,2.7-1.5,6.9-1.6,12.6h-12.2h-21.7
	c0.2-5.6,0.6-10.4,1.2-14.3c0.7-4.6,1.6-8.1,2.8-10.6c2.2-4.5,7.8-9.8,16.8-15.8l2.4-1.6l6.8-4.5l7.3-6.3c3.3-3.9,5-8.2,5-12.9
	c0-2.4-0.4-4.7-1.1-6.9c-0.9-2.8-2.4-5.4-4.5-7.9c-3.7-4.5-10.5-6.7-20.4-6.7c-9.7,0-16.6,2.7-20.7,8.2c-4.1,5.5-6.1,11.2-6.1,17.1
	h-36.3c1-20.3,9.3-34.7,25-43.2c9.9-5.4,22-8.1,36.4-8.1c15.6,0,29.1,2.6,40.3,7.9c2.4,1.1,4.6,2.3,6.8,3.6
	c5.9,3.6,10.3,8,13.5,13.3c3.5,5.9,5.3,12.9,5.3,20.9C565,423.2,562.3,431,556.9,437.3z"/>
<path class="st5" d="M559.7,393c-3.1-5.2-7.6-9.7-13.5-13.3c-2.2-1.3-4.4-2.5-6.8-3.6c-11.3-5.3-24.7-7.9-40.3-7.9
	c-14.4,0-26.5,2.7-36.4,8.1c-15.7,8.5-24,22.9-25,43.2H474c0-5.9,2-11.6,6.1-17.1c4.1-5.5,11-8.2,20.7-8.2c9.9,0,16.7,2.2,20.4,6.7
	c2.1,2.5,3.5,5.2,4.5,7.9c0.7,2.2,1.1,4.5,1.1,6.9c0,4.7-1.7,9-5,12.9l-7.3,6.3l-6.8,4.5l-2.4,1.6c-9,6-14.6,11.3-16.8,15.8
	c-1.2,2.5-2.1,6-2.8,10.6c-0.6,4-1,8.8-1.2,14.3h21.7h12.2c0.1-5.7,0.7-9.9,1.6-12.6c1.6-4.3,4.8-8,9.7-11.2l8.9-5.9
	c9-6,15.1-10.9,18.3-14.7c5.4-6.3,8.1-14.1,8.1-23.4C565,405.9,563.2,398.9,559.7,393z"/>
<polygon class="st5" points="492.2,496.4 483.5,496.4 483.5,504.7 483.5,527.3 520.9,527.3 520.9,496.4 "/>
</svg>
