<?xml version="1.0" encoding="utf-8"?>
<!-- Generator: Adobe Illustrator 21.0.2, SVG Export Plug-In . SVG Version: 6.00 Build 0)  -->
<svg version="1.1" id="Layer_1" xmlns="http://www.w3.org/2000/svg" xmlns:xlink="http://www.w3.org/1999/xlink" x="0px" y="0px"
	 viewBox="0 0 630.5 581.7" style="enable-background:new 0 0 630.5 581.7;" xml:space="preserve">
<style type="text/css">
	.st0{fill:#6D6E71;}
	.st1{fill:#F1F2F2;}
	.st2{fill:#414042;}
	.st3{fill:#E85685;}
	.st4{fill:#1B6DAB;}
	.st5{fill:#FF9023;}
	.st6{fill:#FFFFFF;}
</style>
<circle class="st0" cx="289.6" cy="290.8" r="288.7"/>
<circle class="st1" cx="289.6" cy="290.8" r="263.9"/>
<g>
	<path class="st2" d="M282.7,287.4c0,2.9,2.3,5.8,5.8,5.8c2.9,0,5.8-2.9,5.8-5.8V162.7c0-3.5-2.3-5.8-5.8-5.8
		c-2.9,0-5.8,2.3-5.8,5.8V287.4z"/>
</g>
<g>
	<path class="st2" d="M287.9,303.5c3.5,0,5.8-2.3,5.8-5.8c0-2.9-2.3-5.8-5.8-5.8h-101c-2.9,0-5.8,2.3-5.8,5.8c0,2.9,2.9,5.8,5.8,5.8
		H287.9z"/>
</g>
<g>
	<g>
		<rect x="50.6" y="286.2" class="st2" width="34.1" height="9.2"/>
		<rect x="494.6" y="286.2" class="st2" width="34.1" height="9.2"/>
	</g>
	<g>
		<rect x="285" y="495.8" class="st2" width="9.2" height="34.1"/>
		<rect x="285" y="51.8" class="st2" width="9.2" height="34.1"/>
	</g>
	<g>
		
			<rect x="115.7" y="442.9" transform="matrix(0.7072 -0.7071 0.7071 0.7072 -277.5332 224.8989)" class="st2" width="34.1" height="9.2"/>
		
			<rect x="429.4" y="129.5" transform="matrix(0.7071 -0.7072 0.7072 0.7071 35.936 355.006)" class="st2" width="34.1" height="9.2"/>
	</g>
	<g>
		
			<rect x="441.8" y="430.6" transform="matrix(0.7071 -0.7071 0.7071 0.7071 -185.8038 446.7428)" class="st2" width="9.2" height="34.1"/>
		
			<rect x="128.4" y="116.9" transform="matrix(0.7071 -0.7071 0.7071 0.7071 -55.7465 133.2735)" class="st2" width="9.2" height="34.1"/>
	</g>
</g>
<circle class="st2" cx="288.5" cy="298.3" r="17.9"/>
<circle class="st1" cx="288.5" cy="298.3" r="13.9"/>
<circle class="st3" cx="288.5" cy="298.3" r="10.4"/>
<g>
	<g>
		<path class="st3" d="M294.3,297.8c-2.3-2.3-5.8-2.3-7.5-0.6c-1.7,1.7-1.7,5.2,0.6,7.5l98.2,98.2c2.3,2.3,5.8,2.3,7.5,0.6
			c1.7-1.7,1.7-5.2-0.6-7.5L294.3,297.8z"/>
	</g>
</g>
<rect x="496.4" y="502.7" class="st4" width="33.9" height="28"/>
<path class="st5" d="M501.4,574c-70,0-126.8-56.8-126.8-126.7c0-70,56.8-126.8,126.8-126.8s126.7,56.8,126.7,126.8
	C628.1,517.2,571.4,574,501.4,574z"/>
<path class="st6" d="M559.7,399.1c-3.1-5.2-7.6-9.7-13.5-13.3c-2.2-1.3-4.4-2.5-6.8-3.6c-11.3-5.3-24.7-7.9-40.3-7.9
	c-14.4,0-26.5,2.7-36.4,8.1c-15.7,8.5-24,22.9-25,43.2H474c0-5.9,2-11.6,6.1-17.1s11-8.2,20.7-8.2c9.9,0,16.7,2.2,20.4,6.7
	c2.1,2.5,3.5,5.2,4.5,7.9c0.7,2.2,1.1,4.5,1.1,6.9c0,4.7-1.7,9-5,12.9l-7.3,6.3l-6.8,4.5l-2.4,1.6c-9,6-14.6,11.3-16.8,15.8
	c-1.2,2.5-2.1,6-2.8,10.6c-0.6,4-1,8.8-1.2,14.3h21.7h12.2c0.1-5.7,0.7-9.9,1.6-12.6c1.6-4.3,4.8-8,9.7-11.2l8.9-5.9
	c9-6,15.1-10.9,18.3-14.7c5.4-6.3,8.1-14.1,8.1-23.4C565,412,563.2,405,559.7,399.1z"/>
<polygon class="st6" points="492.2,502.5 483.5,502.5 483.5,510.8 483.5,533.4 520.9,533.4 520.9,502.5 "/>
</svg>
