<?xml version="1.0" encoding="utf-8"?>
<!-- Generator: Adobe Illustrator 18.1.1, SVG Export Plug-In . SVG Version: 6.00 Build 0)  -->
<svg version="1.1" id="Layer_1" xmlns:sketch="http://www.bohemiancoding.com/sketch/ns"
	 xmlns="http://www.w3.org/2000/svg" xmlns:xlink="http://www.w3.org/1999/xlink" x="0px" y="0px" viewBox="-21 3.7 16 16"
	 enable-background="new -21 3.7 16 16" xml:space="preserve">
<g id="Icons_with_numbers">
	<g>
		<g id="Group_8_" transform="translate(-48.000000, -432.000000)">
			<path id="Oval_318_8_" fill="#E85685" d="M33.9,446.7v1.9h2.4v-1.9H33.9z M35,451.7c-4.4,0-8-3.6-8-8s3.6-8,8-8s8,3.6,8,8
				S39.4,451.7,35,451.7z M32.6,439.2c-1,0.5-1.5,1.4-1.6,2.7h2.3c0-0.4,0.1-0.7,0.4-1.1c0.3-0.3,0.7-0.5,1.3-0.5
				c0.6,0,1,0.1,1.3,0.4c0.2,0.3,0.4,0.6,0.4,0.9c0,0.3-0.1,0.6-0.3,0.8l-0.5,0.4l-0.6,0.4c-0.6,0.4-0.9,0.7-1.1,1
				c-0.1,0.3-0.2,0.8-0.3,1.6h2.1c0-0.4,0-0.6,0.1-0.8c0.1-0.3,0.3-0.5,0.6-0.7l0.6-0.4c0.6-0.4,1-0.7,1.2-0.9
				c0.3-0.4,0.5-0.9,0.5-1.5c0-0.9-0.4-1.7-1.2-2.1c-0.8-0.5-1.8-0.7-3-0.7C34,438.7,33.2,438.9,32.6,439.2z"/>
		</g>
	</g>
</g>
</svg>
