<?xml version="1.0" encoding="utf-8"?>
<!-- Generator: Adobe Illustrator 18.1.1, SVG Export Plug-In . SVG Version: 6.00 Build 0)  -->
<svg version="1.1" id="Layer_1" xmlns="http://www.w3.org/2000/svg" xmlns:xlink="http://www.w3.org/1999/xlink" x="0px" y="0px"
	 viewBox="-21 -21.8 64 65" enable-background="new -21 -21.8 64 65" xml:space="preserve">
<path fill="#FFFFFF" d="M41.7-18.8c-1.2-1.4-3.2-1.5-4.5-0.2l-56.6,54.5c-1.3,1.2-1.4,3.4-0.2,4.7c1.2,1.3,3.2,1.4,4.5,0.2
	l56.6-54.5C42.8-15.4,42.8-17.5,41.7-18.8z"/>
<path fill="#FFFFFF" d="M-18.8-19.8c-1.2,1.3-1.2,3.5,0.1,4.7l55,56.3c1.3,1.3,3.3,1.3,4.5-0.1c1.2-1.3,1.2-3.4-0.1-4.7l-55-56.3
	C-15.6-21.2-17.6-21.1-18.8-19.8z"/>
</svg>
