<?xml version="1.0" encoding="utf-8"?>
<!-- Generator: Adobe Illustrator 18.1.1, SVG Export Plug-In . SVG Version: 6.00 Build 0)  -->
<svg version="1.1" id="Layer_1" xmlns="http://www.w3.org/2000/svg" xmlns:xlink="http://www.w3.org/1999/xlink" x="0px" y="0px"
	 viewBox="-6.7 0 630.5 581.7" enable-background="new -6.7 0 630.5 581.7" xml:space="preserve">
<circle fill="#6D6E71" cx="282.9" cy="290.8" r="288.7"/>
<circle fill="#F1F2F2" cx="282.9" cy="290.8" r="263.9"/>
<g>
	<path fill="#414042" d="M276,287.4c0,2.9,2.3,5.8,5.8,5.8c2.9,0,5.8-2.9,5.8-5.8V162.7c0-3.5-2.3-5.8-5.8-5.8
		c-2.9,0-5.8,2.3-5.8,5.8V287.4z"/>
</g>
<g>
	<path fill="#414042" d="M281.2,303.5c3.5,0,5.8-2.3,5.8-5.8c0-2.9-2.3-5.8-5.8-5.8h-101c-2.9,0-5.8,2.3-5.8,5.8
		c0,2.9,2.9,5.8,5.8,5.8H281.2z"/>
</g>
<g>
	<g>
		<rect x="43.9" y="286.2" fill="#414042" width="34.1" height="9.2"/>
		<rect x="487.9" y="286.2" fill="#414042" width="34.1" height="9.2"/>
	</g>
	<g>
		<rect x="278.3" y="495.8" fill="#414042" width="9.2" height="34.1"/>
		<rect x="278.3" y="51.8" fill="#414042" width="9.2" height="34.1"/>
	</g>
	<g>
		
			<rect x="121.4" y="430.5" transform="matrix(0.7071 0.7072 -0.7072 0.7071 353.4218 41.9663)" fill="#414042" width="9.2" height="34.1"/>
		
			<rect x="435.2" y="117.1" transform="matrix(0.7072 0.7071 -0.7071 0.7072 223.622 -271.7085)" fill="#414042" width="9.2" height="34.1"/>
	</g>
	<g>
		
			<rect x="422.6" y="443.1" transform="matrix(0.7071 0.7071 -0.7071 0.7071 445.3851 -179.7563)" fill="#414042" width="34.1" height="9.2"/>
		
			<rect x="109.2" y="129.3" transform="matrix(0.7071 0.7071 -0.7071 0.7071 131.6857 -50.0175)" fill="#414042" width="34.1" height="9.2"/>
	</g>
</g>
<circle fill="#414042" cx="281.8" cy="298.3" r="17.9"/>
<circle fill="#F1F2F2" cx="281.8" cy="298.3" r="13.9"/>
<circle fill="#E85685" cx="281.8" cy="298.3" r="10.4"/>
<g>
	<g>
		<path fill="#E85685" d="M287.6,297.8c-2.3-2.3-5.8-2.3-7.5-0.6c-1.7,1.7-1.7,5.2,0.6,7.5l98.2,98.2c2.3,2.3,5.8,2.3,7.5,0.6
			c1.7-1.7,1.7-5.2-0.6-7.5L287.6,297.8z"/>
	</g>
</g>
<rect x="489.7" y="502.7" fill="#1B6DAB" width="33.9" height="28"/>
<path fill="#E0564B" d="M494.7,574c-70,0-126.8-56.8-126.8-126.7c0-70,56.8-126.8,126.8-126.8c70,0,126.7,56.8,126.7,126.8
	C621.4,517.2,564.7,574,494.7,574z"/>
<polygon fill="#FFFFFF" points="580.4,387.2 559.8,362.6 495.8,424.6 434.1,362 409.5,382.6 472.3,447.4 408.9,508.8 432.4,532.9 
	495.3,471 555.8,533.4 579.9,509.9 518.7,447.9 "/>
</svg>
