<?xml version="1.0" encoding="utf-8"?>
<!-- Generator: Adobe Illustrator 21.0.2, SVG Export Plug-In . SVG Version: 6.00 Build 0)  -->
<svg version="1.1" id="Layer_1" xmlns="http://www.w3.org/2000/svg" xmlns:xlink="http://www.w3.org/1999/xlink" x="0px" y="0px"
	 viewBox="0 0 634 581.7" style="enable-background:new 0 0 634 581.7;" xml:space="preserve">
<style type="text/css">
	.st0{fill:#6D6E71;}
	.st1{fill:#F1F2F2;}
	.st2{fill:#414042;}
	.st3{fill:#E85685;}
	.st4{fill:#1B6DAB;}
	.st5{fill:#FF9023;}
	.st6{fill:#FFFFFF;}
</style>
<circle class="st0" cx="292.6" cy="290.8" r="288.7"/>
<circle class="st1" cx="292.6" cy="290.8" r="263.9"/>
<g>
	<path class="st2" d="M285.7,287.4c0,2.9,2.3,5.8,5.8,5.8c2.9,0,5.8-2.9,5.8-5.8V162.7c0-3.5-2.3-5.8-5.8-5.8
		c-2.9,0-5.8,2.3-5.8,5.8V287.4z"/>
</g>
<g>
	<path class="st2" d="M290.9,303.5c3.5,0,5.8-2.3,5.8-5.8c0-2.9-2.3-5.8-5.8-5.8h-101c-2.9,0-5.8,2.3-5.8,5.8c0,2.9,2.9,5.8,5.8,5.8
		H290.9z"/>
</g>
<g>
	<g>
		<rect x="53.6" y="286.2" class="st2" width="34.1" height="9.2"/>
		<rect x="497.6" y="286.2" class="st2" width="34.1" height="9.2"/>
	</g>
	<g>
		<rect x="288" y="495.8" class="st2" width="9.2" height="34.1"/>
		<rect x="288" y="51.8" class="st2" width="9.2" height="34.1"/>
	</g>
	<g>
		
			<rect x="118.7" y="442.9" transform="matrix(0.7072 -0.7071 0.7071 0.7072 -276.6921 227.0142)" class="st2" width="34.1" height="9.2"/>
		
			<rect x="432.4" y="129.5" transform="matrix(0.7071 -0.7072 0.7072 0.7071 36.8139 357.1576)" class="st2" width="34.1" height="9.2"/>
	</g>
	<g>
		
			<rect x="444.8" y="430.6" transform="matrix(0.7071 -0.7071 0.7071 0.7071 -184.9392 448.8944)" class="st2" width="9.2" height="34.1"/>
		
			<rect x="131.4" y="116.9" transform="matrix(0.7071 -0.7071 0.7071 0.7071 -54.8794 135.3783)" class="st2" width="9.2" height="34.1"/>
	</g>
</g>
<circle class="st2" cx="291.5" cy="298.3" r="17.9"/>
<circle class="st1" cx="291.5" cy="298.3" r="13.9"/>
<circle class="st3" cx="291.5" cy="298.3" r="10.4"/>
<g>
	<g>
		<path class="st3" d="M297.3,297.8c-2.3-2.3-5.8-2.3-7.5-0.6c-1.7,1.7-1.7,5.2,0.6,7.5l98.2,98.2c2.3,2.3,5.8,2.3,7.5,0.6
			c1.7-1.7,1.7-5.2-0.6-7.5L297.3,297.8z"/>
	</g>
</g>
<rect x="499.4" y="502.7" class="st4" width="33.9" height="28"/>
<path class="st5" d="M504.4,574c-70,0-126.8-56.8-126.8-126.7c0-70,56.8-126.8,126.8-126.8s126.7,56.8,126.7,126.8
	C631.1,517.2,574.4,574,504.4,574z"/>
<g>
	<path class="st6" d="M504.2,422.6c16.2,0,32.4,0,48.6,0c5,0,5.6,0.5,5.6,5.4c0,30,0,59.9,0,89.9c0,10.8-5.9,16.7-16.6,16.7
		c-25.1,0.1-50.1,0.1-75.2,0c-10.8,0-16.5-5.8-16.6-16.7c0-30,0-59.9,0-89.9c0-5.1,0.4-5.4,5.5-5.4
		C471.8,422.6,488,422.6,504.2,422.6z M510.1,477.8c0-11.3,0-22.6,0-33.9c0-1,0-2,0-2.9c-0.3-3.4-2.5-5.6-5.6-5.7
		c-3.2-0.1-5.5,1.9-6,5.3c-0.1,0.7-0.1,1.5-0.1,2.2c0,23.2,0,46.4,0,69.7c0,1.2,0.1,2.5,0.5,3.6c0.9,2.6,3,3.9,5.7,3.7
		s4.6-1.7,5.3-4.4c0.3-1.2,0.2-2.4,0.2-3.7C510.1,500.4,510.1,489.1,510.1,477.8z M480.3,477.4c0-11.1,0-22.1,0-33.2
		c0-1.5-0.1-3-0.3-4.4c-0.6-3.1-2.7-4.7-5.8-4.6c-3.1,0.1-5,1.8-5.5,4.9c-0.2,1.1-0.2,2.2-0.2,3.3c0,22.7,0,45.5,0,68.2
		c0,1.1,0,2.2,0.2,3.3c0.5,2.9,2.4,4.6,5.3,4.7c3,0.2,5.2-1.3,5.9-4.4c0.3-1.4,0.4-2.9,0.4-4.4C480.4,499.8,480.3,488.6,480.3,477.4
		z M528.3,477.4c0,11.1,0,22.1,0,33.2c0,1.2,0,2.5,0.1,3.7c0.3,3.3,2.2,5.2,5.4,5.5c3.1,0.3,5.5-1.8,6.1-5.1c0.2-1,0.2-2,0.2-2.9
		c0-22.7,0-45.5,0-68.2c0-1.2-0.1-2.5-0.3-3.7c-0.7-3.1-2.7-4.7-5.8-4.6s-5,1.8-5.5,4.9c-0.2,1.3-0.2,2.7-0.2,4
		C528.2,455.3,528.3,466.4,528.3,477.4z"/>
	<path class="st6" d="M504.4,415.3c-20.4,0-40.8,0-61.1,0c-5.2,0-5.7-0.5-5.6-5.7c0-4.2-0.1-8.4,0.2-12.5c0.5-7.3,6-12.8,13.3-13.3
		c3.8-0.2,7.6-0.1,11.4-0.2c2.9,0,4.2-1.3,4.2-4.3c0-2.4,0-4.9,0.5-7.3c1.4-6.3,6.5-11,13-11.1c16-0.2,31.9-0.3,47.9,0
		c7.7,0.1,13.7,6.4,13.6,14.1c-0.1,10.1,1.6,8.9,8.9,8.5c15.8-0.9,21.5,7,20.4,20.7c-0.1,1.8,0,3.7,0,5.5c0,4.8-0.7,5.6-5.5,5.6
		c-18.5,0-37.1,0-55.6,0C508,415.3,506.2,415.3,504.4,415.3z M504.2,372.5c-7,0-14,0-21,0c-4.2,0-4.8,0.7-4.8,5.1c0,5,0.6,6,4.7,6
		c14.1,0,28.2,0,42.4,0c4,0,4.6-0.9,4.6-5.7c0-4.7-0.5-5.3-4.5-5.3C518.4,372.5,511.3,372.5,504.2,372.5z"/>
</g>
</svg>
